<svg xmlns="http://www.w3.org/2000/svg" xmlns:xlink="http://www.w3.org/1999/xlink" viewBox="0 0 44 55" version="1.1" x="0px" y="0px"><title>Dokument</title><desc>Created with Sketch.</desc><g stroke="none" stroke-width="1" fill="none" fill-rule="evenodd"><g transform="translate(-449.000000, -338.000000)"><path d="M456.990179,342 C454.786464,342 453,343.785246 453,345.990179 L453,374.009821 C453,376.213536 454.785246,378 456.990179,378 L485.009821,378 C487.213536,378 489,376.214754 489,374.009821 L489,345.990179 C489,343.786464 487.214754,342 485.009821,342 L456.990179,342 L456.990179,342 Z M462.990795,350 C461.891309,350 461,350.88773 461,352 C461,353.104569 461.898212,354 462.990795,354 L479.009205,354 C480.108691,354 481,353.11227 481,352 C481,350.895431 480.101788,350 479.009205,350 L462.990795,350 L462.990795,350 Z M462.990795,358 C461.891309,358 461,358.88773 461,360 C461,361.104569 461.898212,362 462.990795,362 L479.009205,362 C480.108691,362 481,361.11227 481,360 C481,358.895431 480.101788,358 479.009205,358 L462.990795,358 L462.990795,358 Z M463.005859,366 C461.898054,366 461,366.88773 461,368 C461,369.104569 461.89706,370 463.005859,370 L472.994141,370 C474.101946,370 475,369.11227 475,368 C475,366.895431 474.10294,366 472.994141,366 L463.005859,366 L463.005859,366 Z" fill="#000000"/></g></g><text x="0" y="59" fill="#000000" font-size="5px" font-weight="bold" font-family="'Helvetica Neue', Helvetica, Arial-Unicode, Arial, Sans-serif">Created by Tim Neumann</text><text x="0" y="64" fill="#000000" font-size="5px" font-weight="bold" font-family="'Helvetica Neue', Helvetica, Arial-Unicode, Arial, Sans-serif">from the Noun Project</text></svg>